<svg xmlns="http://www.w3.org/2000/svg" xmlns:xlink="http://www.w3.org/1999/xlink" width="500" zoomAndPan="magnify" viewBox="0 0 375 374.999991" height="500" preserveAspectRatio="xMidYMid meet" version="1.0"><defs><g/><clipPath id="32fc001bae"><path d="M 85 94.382812 L 288 94.382812 L 288 359 L 85 359 Z M 85 94.382812 " clip-rule="nonzero"/></clipPath></defs><g clip-path="url(#32fc001bae)"><path fill="#b05841" d="M 265.355469 353.03125 C 265.121094 353.136719 264.890625 353.238281 264.65625 353.332031 C 251.171875 359.105469 237.359375 353.601562 233.464844 351.890625 C 219.113281 354.285156 202.46875 356.113281 183.933594 356.449219 C 169.144531 356.710938 155.589844 355.976562 143.503906 354.734375 C 134.480469 358.488281 124.976562 359.542969 116.394531 357.875 C 110.386719 356.710938 104.839844 354.214844 100.21875 350.378906 C 88.835938 340.929688 83.792969 323.953125 86.089844 313.804688 L 86.089844 313.796875 C 86.722656 310.972656 87.925781 308.679688 89.726562 307.222656 C 91.597656 305.710938 96.121094 303.46875 107.042969 307.515625 C 108.070312 305.292969 109.753906 302.292969 112.492188 299.277344 C 116.015625 295.394531 119.761719 293.175781 122.226562 291.957031 C 122.476562 281.777344 122.914062 271.40625 123.570312 260.859375 C 126.964844 206.289062 135.550781 156.28125 146.753906 111.40625 C 141.4375 108.601562 139.117188 103.289062 140.542969 99.289062 C 141.371094 96.964844 143.652344 94.566406 146.066406 94.550781 C 149.980469 94.527344 154.210938 100.765625 155.628906 110.519531 C 168.101562 110.03125 181.5625 110.128906 195.859375 111.113281 C 201.445312 111.496094 206.871094 111.996094 212.128906 112.589844 C 214.570312 101.597656 219.585938 94.4375 224.257812 94.5625 C 226.152344 94.609375 228.070312 95.863281 228.988281 97.515625 C 231.117188 101.335938 228.402344 108.121094 221.300781 113.773438 C 230.9375 150.683594 239.4375 191.375 245.554688 235.542969 C 248.171875 254.421875 250.1875 272.742188 251.699219 290.445312 C 254.359375 291.402344 257.898438 293.042969 261.460938 295.914062 C 263.246094 297.347656 264.6875 298.8125 265.84375 300.152344 C 267.691406 299.449219 271.609375 298.253906 276.363281 299.167969 C 280.160156 299.898438 283.292969 301.648438 284.527344 302.960938 C 285.085938 303.546875 285.566406 304.253906 285.992188 305.058594 C 291.546875 315.726562 285.117188 343.992188 265.355469 353.03125 Z M 265.355469 353.03125 " fill-opacity="1" fill-rule="nonzero"/></g><path fill="#de7b5c" d="M 265.355469 353.03125 C 265.121094 353.136719 264.890625 353.238281 264.65625 353.332031 C 255.445312 343.488281 267.046875 307.664062 282.984375 305.144531 C 284.039062 304.980469 285.046875 304.964844 285.992188 305.058594 C 291.546875 315.726562 285.117188 343.992188 265.355469 353.03125 Z M 265.355469 353.03125 " fill-opacity="1" fill-rule="nonzero"/><path fill="#de7b5c" d="M 116.394531 357.875 C 110.386719 356.710938 104.839844 354.214844 100.21875 350.378906 C 88.835938 340.929688 83.792969 323.953125 86.089844 313.804688 L 86.089844 313.796875 C 87.773438 312.90625 90.054688 312.105469 92.707031 312.230469 C 108.710938 312.972656 124.082031 346.828125 116.394531 357.875 Z M 116.394531 357.875 " fill-opacity="1" fill-rule="nonzero"/><path fill="#022b3a" d="M 150.832031 103.070312 C 152.359375 105.40625 152.609375 108.992188 151.3125 109.730469 C 149.417969 110.808594 143.355469 106.3125 143.796875 102.421875 C 143.8125 102.285156 144.019531 100.65625 145.167969 100.078125 C 146.839844 99.238281 149.542969 101.09375 150.832031 103.070312 Z M 150.832031 103.070312 " fill-opacity="1" fill-rule="nonzero"/><path fill="#022b3a" d="M 216.890625 105.65625 C 215.269531 108.136719 215 111.949219 216.378906 112.734375 C 218.390625 113.878906 224.835938 109.101562 224.367188 104.96875 C 224.351562 104.820312 224.132812 103.089844 222.90625 102.476562 C 221.132812 101.585938 218.257812 103.554688 216.890625 105.65625 Z M 216.890625 105.65625 " fill-opacity="1" fill-rule="nonzero"/><path fill="#f7f0f5" d="M 207.636719 154.238281 C 207.050781 156.292969 205.027344 162.972656 197.757812 167.382812 C 190.933594 171.527344 180.207031 173.226562 172.425781 168.457031 C 166.023438 164.53125 164.664062 158.085938 164.171875 155.769531 C 163.964844 154.773438 161.027344 139.515625 174.054688 132.089844 C 183.203125 126.871094 196 127.710938 203.21875 134.425781 C 211.179688 141.828125 208.105469 152.601562 207.636719 154.238281 Z M 207.636719 154.238281 " fill-opacity="1" fill-rule="nonzero"/><path fill="#022b3a" d="M 199.238281 137.949219 C 200.25 140.308594 199.757812 143.234375 198.417969 145.238281 C 194.070312 151.742188 178.804688 151.507812 174.4375 144.601562 C 173.101562 142.492188 172.5 139.304688 173.761719 136.828125 C 176.167969 132.097656 184.101562 132.472656 186.800781 132.601562 C 189.621094 132.738281 197.160156 133.09375 199.238281 137.949219 Z M 199.238281 137.949219 " fill-opacity="1" fill-rule="nonzero"/><path fill="#022b3a" d="M 162.511719 126.957031 C 164.019531 127.847656 164 131.636719 162.527344 132.394531 C 161.898438 132.71875 161.203125 132.386719 161.160156 132.367188 C 159.71875 131.65625 160.117188 128.910156 160.167969 128.578125 C 160.269531 127.9375 160.394531 127.222656 160.964844 126.894531 C 161.441406 126.625 162.085938 126.703125 162.511719 126.957031 Z M 162.511719 126.957031 " fill-opacity="1" fill-rule="nonzero"/><path fill="#022b3a" d="M 207.082031 127.003906 C 208.507812 128.023438 208.160156 131.800781 206.628906 132.425781 C 205.976562 132.691406 205.308594 132.304688 205.265625 132.277344 C 203.890625 131.445312 204.527344 128.746094 204.609375 128.417969 C 204.765625 127.789062 204.949219 127.085938 205.546875 126.8125 C 206.046875 126.585938 206.679688 126.71875 207.082031 127.003906 Z M 207.082031 127.003906 " fill-opacity="1" fill-rule="nonzero"/><path fill="#022b3a" d="M 187.953125 142.898438 C 187.890625 147.644531 187.816406 153.503906 187.949219 158.214844 C 187.996094 159.90625 188.039062 161.589844 188.109375 163.242188 L 185.242188 163.5625 C 184.269531 156.652344 184.710938 149.699219 185.070312 142.765625 C 185.070312 142.765625 187.953125 142.898438 187.953125 142.898438 Z M 187.953125 142.898438 " fill-opacity="1" fill-rule="nonzero"/><path fill="#022b3a" d="M 186.132812 164.261719 C 185.550781 164.261719 185.082031 164.179688 184.796875 164.117188 C 180.796875 163.214844 179.386719 158.613281 179.242188 158.089844 L 182.019531 157.308594 C 182.058594 157.449219 183.019531 160.757812 185.4375 161.304688 C 185.59375 161.339844 186.152344 161.445312 186.84375 161.304688 C 189.554688 160.757812 190.882812 156.980469 190.9375 156.820312 L 193.667969 157.757812 C 193.355469 158.675781 191.566406 163.296875 187.414062 164.132812 C 186.949219 164.226562 186.515625 164.261719 186.132812 164.261719 Z M 186.132812 164.261719 " fill-opacity="1" fill-rule="nonzero"/><path fill="#ffc0de" d="M 158.628906 138.140625 C 157.28125 141.242188 153.21875 141.375 152.671875 141.382812 C 151.753906 141.398438 149.484375 141.4375 148.074219 139.734375 C 146.734375 138.117188 146.792969 135.671875 147.710938 134.125 C 149.683594 130.808594 156.238281 130.574219 158.324219 133.550781 C 159.265625 134.886719 159.226562 136.769531 158.628906 138.140625 Z M 158.628906 138.140625 " fill-opacity="1" fill-rule="nonzero"/><path fill="#ffc0de" d="M 222.621094 135.890625 C 221.269531 138.988281 217.207031 139.121094 216.664062 139.132812 C 215.742188 139.148438 213.472656 139.1875 212.0625 137.484375 C 210.722656 135.863281 210.78125 133.421875 211.699219 131.875 C 213.671875 128.558594 220.226562 128.324219 222.3125 131.300781 C 223.253906 132.636719 223.214844 134.519531 222.621094 135.890625 Z M 222.621094 135.890625 " fill-opacity="1" fill-rule="nonzero"/><path fill="#f4a259" d="M 211.4375 225.125 C 211.460938 218.964844 214 214.894531 216.660156 214.636719 C 218.433594 214.460938 220.121094 216 220.90625 217.273438 C 222.746094 220.265625 221.570312 225.023438 217.550781 228.761719 C 219.195312 238.667969 221.304688 251.605469 223.664062 266.769531 C 233.519531 330.054688 233.640625 341.25 226.136719 349.054688 C 218.054688 357.460938 205.351562 357.550781 184.742188 357.703125 C 168.277344 357.820312 154.265625 357.835938 145.277344 348.90625 C 136.746094 340.4375 137.183594 328.292969 139.359375 303.242188 C 141.121094 282.964844 143.785156 256.921875 147.957031 226.417969 C 142.476562 222.742188 140.707031 217.589844 142.414062 214.785156 C 143.335938 213.269531 145.367188 212.28125 147.148438 212.488281 C 150.523438 212.878906 153.691406 217.636719 153.460938 224.550781 C 161.40625 223.527344 170.476562 222.820312 180.476562 222.828125 C 192.105469 222.832031 202.523438 223.796875 211.4375 225.125 Z M 211.4375 225.125 " fill-opacity="1" fill-rule="nonzero"/><path fill="#f4a259" d="M 155.609375 360.625 C 152.292969 363.640625 147.457031 364.304688 143.714844 363.449219 C 132.246094 360.828125 123.984375 342.289062 131.316406 331.582031 C 134.753906 326.558594 141.855469 322.914062 147.792969 324.570312 C 159.785156 327.914062 164.835938 352.226562 155.609375 360.625 Z M 155.609375 360.625 " fill-opacity="1" fill-rule="nonzero"/><path fill="#ce8144" d="M 150.984375 358.132812 C 148.554688 360.34375 145.011719 360.832031 142.269531 360.203125 C 133.867188 358.28125 127.8125 344.699219 133.183594 336.851562 C 135.703125 333.167969 140.90625 330.5 145.257812 331.714844 C 154.042969 334.164062 157.746094 351.980469 150.984375 358.132812 Z M 150.984375 358.132812 " fill-opacity="1" fill-rule="nonzero"/><path fill="#f4a259" d="M 218.828125 359.59375 C 222.144531 362.613281 226.980469 363.277344 230.722656 362.421875 C 242.191406 359.800781 250.453125 341.261719 243.121094 330.550781 C 239.683594 325.53125 232.585938 321.886719 226.644531 323.542969 C 214.652344 326.882812 209.601562 351.199219 218.828125 359.59375 Z M 218.828125 359.59375 " fill-opacity="1" fill-rule="nonzero"/><path fill="#ce8144" d="M 223.453125 357.105469 C 225.882812 359.316406 229.425781 359.804688 232.167969 359.175781 C 240.574219 357.253906 246.628906 343.671875 241.253906 335.820312 C 238.738281 332.140625 233.535156 329.472656 229.179688 330.683594 C 220.394531 333.132812 216.691406 350.953125 223.453125 357.105469 Z M 223.453125 357.105469 " fill-opacity="1" fill-rule="nonzero"/><path fill="#f7f0f5" d="M 196.417969 250.515625 C 196.542969 251.957031 197.566406 259.054688 192.335938 262.75 C 187.230469 266.359375 178.800781 266.113281 174.152344 262.589844 C 169.851562 259.324219 170.386719 253.453125 170.460938 250.777344 C 170.535156 247.921875 170.691406 242.1875 175.296875 238.695312 C 180.519531 234.730469 187.039062 237.003906 187.347656 237.113281 C 195.351562 240.050781 196.351562 249.761719 196.417969 250.515625 Z M 196.417969 250.515625 " fill-opacity="1" fill-rule="nonzero"/><path fill="#022b3a" d="M 175.53125 242.835938 C 174.886719 244.277344 175.15625 246.085938 175.960938 247.335938 C 178.570312 251.382812 187.976562 251.398438 190.738281 247.191406 C 191.582031 245.902344 191.988281 243.945312 191.234375 242.40625 C 189.800781 239.46875 184.914062 239.621094 183.246094 239.671875 C 181.507812 239.726562 176.863281 239.867188 175.53125 242.835938 Z M 175.53125 242.835938 " fill-opacity="1" fill-rule="nonzero"/><path fill="#022b3a" d="M 182.421875 259.917969 C 181.113281 252.644531 182.21875 245.152344 182.265625 244.835938 L 184.550781 245.179688 C 184.539062 245.253906 183.457031 252.621094 184.695312 259.511719 Z M 182.421875 259.917969 " fill-opacity="1" fill-rule="nonzero"/><path fill="#ffc0de" d="M 158.367188 246.496094 C 157.359375 248.664062 154.488281 248.683594 154.105469 248.683594 C 153.453125 248.675781 151.851562 248.664062 150.886719 247.4375 C 149.96875 246.269531 150.050781 244.546875 150.730469 243.46875 C 152.179688 241.164062 156.8125 241.113281 158.234375 243.25 C 158.871094 244.210938 158.8125 245.539062 158.367188 246.496094 Z M 158.367188 246.496094 " fill-opacity="1" fill-rule="nonzero"/><path fill="#ffc0de" d="M 214.597656 245.113281 C 213.589844 247.277344 210.722656 247.300781 210.335938 247.296875 C 209.6875 247.292969 208.082031 247.28125 207.117188 246.050781 C 206.199219 244.882812 206.285156 243.160156 206.960938 242.085938 C 208.414062 239.777344 213.042969 239.726562 214.464844 241.867188 C 215.105469 242.828125 215.046875 244.15625 214.597656 245.113281 Z M 214.597656 245.113281 " fill-opacity="1" fill-rule="nonzero"/><path fill="#022b3a" d="M 161.8125 235.246094 C 161.921875 237.09375 162.257812 241.792969 164.484375 242.035156 C 165.726562 242.054688 166.585938 241.175781 167.15625 240.074219 C 167.78125 238.855469 168.125 237.371094 168.316406 235.902344 L 170.046875 236.019531 C 169.953125 238.941406 169.132812 242.792969 165.960938 243.960938 C 160.882812 245.59375 159.65625 238.789062 160.082031 235.203125 C 160.082031 235.203125 161.8125 235.246094 161.8125 235.246094 Z M 161.8125 235.246094 " fill-opacity="1" fill-rule="nonzero"/><path fill="#022b3a" d="M 198.523438 235.617188 C 198.613281 237.46875 198.949219 242.199219 201.195312 242.421875 C 202.441406 242.445312 203.304688 241.558594 203.875 240.449219 C 204.5 239.230469 204.839844 237.742188 205.027344 236.273438 L 206.753906 236.390625 C 206.65625 239.308594 205.832031 243.152344 202.664062 244.320312 C 197.601562 245.941406 196.394531 239.148438 196.789062 235.574219 C 196.789062 235.574219 198.523438 235.617188 198.523438 235.617188 Z M 198.523438 235.617188 " fill-opacity="1" fill-rule="nonzero"/><path fill="#022b3a" d="M 176.195312 254.03125 C 177.753906 258.996094 183.105469 260.007812 186.734375 256.523438 C 187.773438 255.5 188.492188 254.121094 188.832031 252.617188 L 190.546875 252.855469 C 190.308594 258.949219 182.550781 263.089844 177.546875 259.257812 C 175.980469 258.070312 174.964844 256.355469 174.515625 254.46875 Z M 176.195312 254.03125 " fill-opacity="1" fill-rule="nonzero"/><path fill="#f9cd7d" d="M 209.796875 314.375 C 209.8125 318.410156 209.871094 331.636719 199.433594 339.304688 C 190.25 346.050781 177.585938 345.078125 168.847656 339.632812 C 154.808594 330.882812 155.476562 313.445312 155.570312 311.015625 C 155.707031 307.441406 156.234375 293.734375 167.492188 286.519531 C 177.058594 280.386719 189.398438 282.132812 197.628906 287.835938 C 209.71875 296.203125 209.78125 310.902344 209.796875 314.375 Z M 209.796875 314.375 " fill-opacity="1" fill-rule="nonzero"/><path fill="#f4a259" d="M 201.199219 277.101562 C 209.589844 278.285156 217.976562 279.464844 226.367188 280.648438 C 225.707031 284.429688 224.300781 290.597656 221.027344 297.554688 C 215.492188 309.3125 203.171875 326.425781 193.691406 324.046875 C 189.722656 323.050781 187.8125 319.035156 187.683594 318.757812 C 185.222656 313.375 189.253906 307.832031 194.019531 297.082031 C 195.996094 292.628906 198.722656 285.875 201.199219 277.101562 Z M 201.199219 277.101562 " fill-opacity="1" fill-rule="nonzero"/><path fill="#f4a259" d="M 167.398438 277.101562 C 159.007812 278.285156 150.621094 279.464844 142.230469 280.648438 C 142.894531 284.429688 144.296875 290.597656 147.570312 297.554688 C 153.105469 309.3125 165.425781 326.425781 174.90625 324.046875 C 178.878906 323.050781 180.789062 319.035156 180.914062 318.757812 C 183.375 313.375 179.34375 307.832031 174.578125 297.082031 C 172.601562 292.628906 169.875 285.875 167.398438 277.101562 Z M 167.398438 277.101562 " fill-opacity="1" fill-rule="nonzero"/><path fill="#b05841" d="M 255.59375 250.667969 C 248.375 272.992188 222.648438 288.839844 211.914062 282.90625 C 211.613281 282.738281 211.328125 282.558594 211.054688 282.355469 C 210.210938 281.753906 209.488281 281.011719 208.878906 280.191406 C 208.160156 279.226562 207.597656 278.148438 207.144531 277.046875 C 206.746094 276.058594 206.4375 275.050781 206.203125 274.097656 C 205.519531 271.265625 205.460938 268.828125 205.453125 268.402344 C 205.292969 254.828125 218.105469 249.375 226.808594 233.449219 C 230.585938 226.527344 234.6875 215.597656 234.296875 199.242188 C 237.964844 201.054688 247.078125 206.164062 252.933594 216.976562 C 260.984375 231.851562 256.929688 246.546875 255.59375 250.667969 Z M 255.59375 250.667969 " fill-opacity="1" fill-rule="nonzero"/><path fill="#b05841" d="M 159.523438 270.132812 C 159.515625 270.589844 159.453125 273.375 158.605469 276.464844 C 158.347656 277.414062 158.015625 278.390625 157.585938 279.339844 C 157.117188 280.386719 156.53125 281.402344 155.796875 282.296875 C 155.148438 283.109375 154.371094 283.832031 153.460938 284.394531 C 153.328125 284.480469 153.195312 284.5625 153.0625 284.636719 C 142.328125 290.5625 116.601562 274.722656 109.378906 252.398438 C 108.046875 248.277344 103.992188 233.574219 112.042969 218.707031 C 117.894531 207.894531 127.011719 202.777344 130.679688 200.972656 C 130.285156 217.328125 134.390625 228.257812 138.167969 235.171875 C 146.863281 251.105469 159.683594 256.554688 159.523438 270.132812 Z M 159.523438 270.132812 " fill-opacity="1" fill-rule="nonzero"/><path fill="#022b3a" d="M 155.796875 282.296875 C 155.148438 283.109375 154.371094 283.832031 153.460938 284.394531 C 147.363281 281.394531 143.445312 277.640625 143.253906 277.460938 L 145.269531 275.382812 C 145.3125 275.421875 149.511719 279.433594 155.796875 282.296875 Z M 155.796875 282.296875 " fill-opacity="1" fill-rule="nonzero"/><path fill="#022b3a" d="M 158.605469 276.464844 C 158.347656 277.414062 158.015625 278.390625 157.585938 279.339844 C 153.238281 275.972656 148.226562 271.132812 147.949219 270.875 L 149.964844 268.789062 C 150.027344 268.847656 154.550781 273.21875 158.605469 276.464844 Z M 158.605469 276.464844 " fill-opacity="1" fill-rule="nonzero"/><path fill="#022b3a" d="M 220.972656 275.5625 C 220.789062 275.742188 216.988281 279.382812 211.054688 282.355469 C 210.210938 281.753906 209.488281 281.011719 208.878906 280.191406 C 214.914062 277.351562 218.917969 273.523438 218.964844 273.484375 Z M 220.972656 275.5625 " fill-opacity="1" fill-rule="nonzero"/><path fill="#022b3a" d="M 216.28125 268.972656 C 216.015625 269.230469 211.371094 273.710938 207.144531 277.046875 C 206.746094 276.058594 206.4375 275.050781 206.203125 274.097656 C 210.101562 270.914062 214.207031 266.949219 214.265625 266.890625 Z M 216.28125 268.972656 " fill-opacity="1" fill-rule="nonzero"/><path fill="#de7b5c" d="M 206.003906 203.121094 C 206.011719 199.707031 206.121094 198.921875 206.726562 198.566406 C 206.785156 198.535156 207.207031 198.296875 207.652344 198.4375 C 208.890625 198.828125 208.867188 201.714844 208.863281 202.621094 C 208.855469 203.492188 208.835938 206.511719 207.519531 206.929688 C 207.503906 206.933594 207.054688 207.066406 206.648438 206.835938 C 206.054688 206.503906 206 205.667969 206.003906 203.121094 Z M 206.003906 203.121094 " fill-opacity="1" fill-rule="nonzero"/><path fill="#de7b5c" d="M 162.207031 190.539062 C 162.214844 187.121094 162.324219 186.339844 162.929688 185.984375 C 162.984375 185.953125 163.410156 185.714844 163.855469 185.855469 C 165.09375 186.246094 165.070312 189.132812 165.066406 190.035156 C 165.058594 190.90625 165.039062 193.929688 163.722656 194.34375 C 163.707031 194.351562 163.257812 194.484375 162.851562 194.253906 C 162.257812 193.917969 162.203125 193.082031 162.207031 190.539062 Z M 162.207031 190.539062 " fill-opacity="1" fill-rule="nonzero"/><path fill="#de7b5c" d="M 122.75 250.332031 C 122.757812 246.914062 122.867188 246.132812 123.472656 245.777344 C 123.527344 245.746094 123.953125 245.507812 124.398438 245.648438 C 125.636719 246.039062 125.613281 248.925781 125.609375 249.828125 C 125.601562 250.703125 125.582031 253.722656 124.265625 254.136719 C 124.25 254.144531 123.800781 254.277344 123.394531 254.046875 C 122.800781 253.714844 122.746094 252.878906 122.75 250.332031 Z M 122.75 250.332031 " fill-opacity="1" fill-rule="nonzero"/><path fill="#de7b5c" d="M 237.570312 290.164062 C 237.574219 286.746094 237.683594 285.960938 238.292969 285.609375 C 238.347656 285.574219 238.773438 285.335938 239.214844 285.476562 C 240.453125 285.871094 240.433594 288.753906 240.425781 289.660156 C 240.421875 290.53125 240.398438 293.554688 239.085938 293.96875 C 239.066406 293.972656 238.621094 294.109375 238.210938 293.878906 C 237.621094 293.542969 237.5625 292.707031 237.570312 290.164062 Z M 237.570312 290.164062 " fill-opacity="1" fill-rule="nonzero"/><path fill="#de7b5c" d="M 127.113281 217.746094 C 127.121094 214.328125 127.226562 213.546875 127.835938 213.191406 C 127.890625 213.160156 128.316406 212.917969 128.761719 213.058594 C 129.996094 213.453125 129.976562 216.335938 129.96875 217.242188 C 129.964844 218.113281 129.945312 221.136719 128.628906 221.550781 C 128.609375 221.558594 128.164062 221.691406 127.753906 221.460938 C 127.164062 221.125 127.105469 220.289062 127.113281 217.746094 Z M 127.113281 217.746094 " fill-opacity="1" fill-rule="nonzero"/><path fill="#de7b5c" d="M 221.617188 174.386719 C 221.625 170.96875 221.734375 170.1875 222.339844 169.832031 C 222.394531 169.800781 222.820312 169.558594 223.265625 169.699219 C 224.503906 170.09375 224.480469 172.976562 224.476562 173.882812 C 224.46875 174.753906 224.449219 177.777344 223.132812 178.191406 C 223.117188 178.199219 222.667969 178.332031 222.261719 178.101562 C 221.667969 177.765625 221.613281 176.929688 221.617188 174.386719 Z M 221.617188 174.386719 " fill-opacity="1" fill-rule="nonzero"/><path fill="#de7b5c" d="M 230.199219 245.628906 C 230.207031 242.210938 230.316406 241.425781 230.921875 241.070312 C 230.976562 241.039062 231.402344 240.800781 231.847656 240.941406 C 233.082031 241.332031 233.0625 244.21875 233.058594 245.125 C 233.050781 245.996094 233.03125 249.019531 231.714844 249.433594 C 231.695312 249.4375 231.25 249.570312 230.839844 249.339844 C 230.25 249.007812 230.191406 248.171875 230.199219 245.628906 Z M 230.199219 245.628906 " fill-opacity="1" fill-rule="nonzero"/><path fill="#de7b5c" d="M 248.082031 307.171875 C 248.089844 303.753906 248.199219 302.972656 248.804688 302.617188 C 248.859375 302.585938 249.285156 302.34375 249.730469 302.484375 C 250.96875 302.878906 250.945312 305.761719 250.941406 306.667969 C 250.933594 307.539062 250.914062 310.5625 249.597656 310.976562 C 249.582031 310.984375 249.132812 311.117188 248.726562 310.886719 C 248.132812 310.550781 248.078125 309.714844 248.082031 307.171875 Z M 248.082031 307.171875 " fill-opacity="1" fill-rule="nonzero"/><path fill="#de7b5c" d="M 129.71875 302.839844 C 129.726562 299.421875 129.835938 298.640625 130.445312 298.285156 C 130.5 298.253906 130.925781 298.015625 131.367188 298.15625 C 132.605469 298.546875 132.585938 301.433594 132.578125 302.335938 C 132.574219 303.210938 132.550781 306.230469 131.238281 306.644531 C 131.21875 306.652344 130.773438 306.785156 130.363281 306.554688 C 129.773438 306.222656 129.714844 305.382812 129.71875 302.839844 Z M 129.71875 302.839844 " fill-opacity="1" fill-rule="nonzero"/><path fill="#de7b5c" d="M 119.890625 321.015625 C 119.898438 317.597656 120.007812 316.8125 120.613281 316.460938 C 120.667969 316.425781 121.09375 316.1875 121.539062 316.328125 C 122.773438 316.722656 122.753906 319.605469 122.75 320.511719 C 122.742188 321.382812 122.722656 324.40625 121.40625 324.820312 C 121.386719 324.824219 120.941406 324.960938 120.535156 324.730469 C 119.941406 324.394531 119.886719 323.558594 119.890625 321.015625 Z M 119.890625 321.015625 " fill-opacity="1" fill-rule="nonzero"/><path fill="#de7b5c" d="M 240.429688 219.191406 C 240.4375 215.773438 240.542969 214.992188 241.152344 214.636719 C 241.207031 214.605469 241.632812 214.363281 242.078125 214.503906 C 243.3125 214.898438 243.292969 217.78125 243.285156 218.6875 C 243.28125 219.558594 243.261719 222.582031 241.945312 222.996094 C 241.925781 223.003906 241.480469 223.136719 241.070312 222.90625 C 240.480469 222.570312 240.421875 221.734375 240.429688 219.191406 Z M 240.429688 219.191406 " fill-opacity="1" fill-rule="nonzero"/><path fill="#de7b5c" d="M 186.433594 208.511719 C 186.441406 205.09375 186.550781 204.3125 187.160156 203.957031 C 187.214844 203.925781 187.636719 203.683594 188.082031 203.824219 C 189.320312 204.21875 189.300781 207.101562 189.292969 208.007812 C 189.285156 208.878906 189.265625 211.902344 187.953125 212.316406 C 187.933594 212.324219 187.488281 212.457031 187.078125 212.226562 C 186.488281 211.890625 186.429688 211.054688 186.433594 208.511719 Z M 186.433594 208.511719 " fill-opacity="1" fill-rule="nonzero"/><path fill="#de7b5c" d="M 143.023438 178.675781 C 143.03125 175.257812 143.140625 174.476562 143.75 174.121094 C 143.804688 174.089844 144.226562 173.847656 144.671875 173.988281 C 145.910156 174.382812 145.890625 177.265625 145.882812 178.171875 C 145.875 179.042969 145.855469 182.066406 144.542969 182.480469 C 144.523438 182.488281 144.078125 182.621094 143.667969 182.390625 C 143.078125 182.054688 143.019531 181.21875 143.023438 178.675781 Z M 143.023438 178.675781 " fill-opacity="1" fill-rule="nonzero"/><path fill="#ce8144" d="M 210.75 294.714844 C 210.980469 297.070312 211.105469 297.601562 211.546875 297.808594 C 211.589844 297.828125 211.894531 297.964844 212.195312 297.835938 C 213.019531 297.488281 212.816406 295.5 212.753906 294.875 C 212.691406 294.273438 212.480469 292.191406 211.546875 291.992188 C 211.535156 291.988281 211.21875 291.925781 210.953125 292.113281 C 210.566406 292.382812 210.582031 292.960938 210.75 294.714844 Z M 210.75 294.714844 " fill-opacity="1" fill-rule="nonzero"/><path fill="#ce8144" d="M 220.558594 313.886719 C 219.792969 313.601562 219.667969 312.351562 219.527344 310.953125 C 219.386719 309.582031 219.265625 308.199219 220.015625 307.703125 C 220.109375 307.640625 220.253906 307.546875 220.441406 307.558594 C 221.265625 307.621094 221.710938 309.691406 221.835938 310.761719 C 221.921875 311.492188 222.148438 313.441406 221.277344 313.867188 C 220.949219 314.027344 220.597656 313.902344 220.558594 313.886719 Z M 220.558594 313.886719 " fill-opacity="1" fill-rule="nonzero"/><path fill="#ce8144" d="M 197.535156 308.773438 C 196.769531 308.484375 196.644531 307.234375 196.5 305.835938 C 196.363281 304.464844 196.238281 303.082031 196.992188 302.585938 C 197.082031 302.527344 197.226562 302.429688 197.417969 302.441406 C 198.238281 302.503906 198.683594 304.578125 198.808594 305.644531 C 198.894531 306.375 199.121094 308.328125 198.253906 308.75 C 197.921875 308.910156 197.574219 308.785156 197.535156 308.773438 Z M 197.535156 308.773438 " fill-opacity="1" fill-rule="nonzero"/><path fill="#ce8144" d="M 193.585938 280.183594 C 192.820312 279.898438 192.695312 278.644531 192.550781 277.246094 C 192.414062 275.878906 192.289062 274.492188 193.042969 273.996094 C 193.132812 273.9375 193.277344 273.839844 193.46875 273.855469 C 194.289062 273.914062 194.734375 275.988281 194.859375 277.058594 C 194.945312 277.785156 195.175781 279.738281 194.304688 280.164062 C 193.972656 280.324219 193.625 280.199219 193.585938 280.183594 Z M 193.585938 280.183594 " fill-opacity="1" fill-rule="nonzero"/><path fill="#ce8144" d="M 160.492188 301.214844 C 159.761719 300.851562 159.769531 299.59375 159.777344 298.1875 C 159.785156 296.8125 159.808594 295.421875 160.605469 295.007812 C 160.703125 294.957031 160.859375 294.878906 161.042969 294.910156 C 161.855469 295.058594 162.082031 297.164062 162.09375 298.242188 C 162.101562 298.976562 162.121094 300.941406 161.210938 301.273438 C 160.867188 301.398438 160.53125 301.234375 160.492188 301.214844 Z M 160.492188 301.214844 " fill-opacity="1" fill-rule="nonzero"/><path fill="#ce8144" d="M 167.507812 353.078125 C 166.777344 352.710938 166.785156 351.453125 166.792969 350.050781 C 166.800781 348.671875 166.824219 347.28125 167.621094 346.867188 C 167.71875 346.820312 167.875 346.738281 168.058594 346.773438 C 168.871094 346.917969 169.097656 349.027344 169.109375 350.105469 C 169.117188 350.839844 169.136719 352.800781 168.226562 353.132812 C 167.882812 353.257812 167.546875 353.097656 167.507812 353.078125 Z M 167.507812 353.078125 " fill-opacity="1" fill-rule="nonzero"/><path fill="#ce8144" d="M 197.207031 349.871094 C 196.476562 349.503906 196.484375 348.246094 196.492188 346.839844 C 196.5 345.464844 196.523438 344.074219 197.320312 343.660156 C 197.417969 343.609375 197.574219 343.53125 197.757812 343.5625 C 198.570312 343.710938 198.796875 345.820312 198.804688 346.894531 C 198.8125 347.628906 198.835938 349.59375 197.925781 349.925781 C 197.578125 350.050781 197.246094 349.890625 197.207031 349.871094 Z M 197.207031 349.871094 " fill-opacity="1" fill-rule="nonzero"/><path fill="#ce8144" d="M 210.800781 334.523438 C 210.070312 334.15625 210.078125 332.898438 210.085938 331.496094 C 210.089844 330.117188 210.113281 328.726562 210.914062 328.3125 C 211.011719 328.265625 211.167969 328.183594 211.351562 328.21875 C 212.164062 328.363281 212.386719 330.472656 212.398438 331.550781 C 212.40625 332.285156 212.429688 334.246094 211.515625 334.578125 C 211.171875 334.703125 210.839844 334.542969 210.800781 334.523438 Z M 210.800781 334.523438 " fill-opacity="1" fill-rule="nonzero"/><path fill="#ce8144" d="M 168.476562 275.175781 C 167.785156 274.734375 167.921875 273.484375 168.074219 272.089844 C 168.21875 270.71875 168.386719 269.339844 169.222656 269.007812 C 169.324219 268.96875 169.488281 268.90625 169.667969 268.957031 C 170.460938 269.1875 170.46875 271.308594 170.371094 272.378906 C 170.300781 273.109375 170.121094 275.066406 169.183594 275.300781 C 168.828125 275.390625 168.511719 275.195312 168.476562 275.175781 Z M 168.476562 275.175781 " fill-opacity="1" fill-rule="nonzero"/><path fill="#ce8144" d="M 169.695312 316.992188 C 169.003906 316.554688 169.140625 315.300781 169.292969 313.90625 C 169.4375 312.539062 169.605469 311.15625 170.441406 310.828125 C 170.542969 310.785156 170.707031 310.722656 170.886719 310.773438 C 171.679688 311.003906 171.6875 313.125 171.589844 314.195312 C 171.523438 314.925781 171.339844 316.882812 170.402344 317.121094 C 170.046875 317.207031 169.730469 317.015625 169.695312 316.992188 Z M 169.695312 316.992188 " fill-opacity="1" fill-rule="nonzero"/><path fill="#ce8144" d="M 147.242188 313.796875 C 146.550781 313.359375 146.6875 312.109375 146.839844 310.710938 C 146.984375 309.34375 147.152344 307.960938 147.988281 307.632812 C 148.089844 307.59375 148.253906 307.527344 148.433594 307.582031 C 149.226562 307.808594 149.234375 309.929688 149.136719 311.003906 C 149.066406 311.734375 148.886719 313.691406 147.949219 313.925781 C 147.59375 314.015625 147.277344 313.820312 147.242188 313.796875 Z M 147.242188 313.796875 " fill-opacity="1" fill-rule="nonzero"/><path fill="#022b3a" d="M 140.179688 324.046875 C 152.289062 319.425781 160.296875 334.015625 161.171875 344.152344 C 161.585938 347.773438 161.222656 351.523438 160.078125 354.992188 L 158.425781 354.480469 C 159.390625 351.203125 159.609375 347.757812 159.1875 344.375 C 158.152344 335.457031 151.636719 322.15625 140.753906 325.679688 C 140.753906 325.679688 140.179688 324.046875 140.179688 324.046875 Z M 140.179688 324.046875 " fill-opacity="1" fill-rule="nonzero"/><path fill="#022b3a" d="M 213.085938 353.277344 C 211.296875 340.847656 215.429688 324.464844 229.816406 322.289062 C 229.816406 322.289062 230.152344 323.988281 230.152344 323.988281 C 227.242188 324.695312 224.535156 326.035156 222.367188 328 C 216.761719 333.117188 215.125 341.183594 214.792969 348.515625 C 214.71875 350.035156 214.730469 351.585938 214.808594 353.082031 Z M 213.085938 353.277344 " fill-opacity="1" fill-rule="nonzero"/><g fill="#000000" fill-opacity="1"><g transform="translate(96.421566, 115.035685)"><g><path d="M 2.3125 -2.796875 L -23.378906 -24.042969 L -15.160156 -33.980469 C -14.125 -35.230469 -13.011719 -36.191406 -11.820312 -36.855469 C -10.628906 -37.523438 -9.398438 -37.898438 -8.128906 -37.988281 C -6.859375 -38.074219 -5.578125 -37.871094 -4.289062 -37.382812 C -2.996094 -36.894531 -1.726562 -36.132812 -0.476562 -35.097656 C 0.777344 -34.0625 1.761719 -32.957031 2.484375 -31.785156 C 3.207031 -30.609375 3.644531 -29.386719 3.796875 -28.125 C 3.953125 -26.863281 3.8125 -25.582031 3.382812 -24.285156 C 2.949219 -22.992188 2.21875 -21.71875 1.183594 -20.464844 L -2.441406 -16.085938 L 6.910156 -8.355469 Z M -6.894531 -19.769531 L -4.429688 -22.75 C -3.351562 -24.050781 -2.851562 -25.15625 -2.925781 -26.0625 C -3.003906 -26.972656 -3.605469 -27.894531 -4.734375 -28.828125 L -5.835938 -29.738281 C -6.964844 -30.671875 -7.984375 -31.089844 -8.890625 -30.996094 C -9.796875 -30.898438 -10.789062 -30.199219 -11.863281 -28.898438 L -14.328125 -25.917969 Z M -6.894531 -19.769531 "/></g></g></g><g fill="#000000" fill-opacity="1"><g transform="translate(113.276839, 94.259963)"><g><path d="M 18.957031 -13.476562 C 17.761719 -12.628906 16.585938 -12.25 15.425781 -12.34375 C 14.265625 -12.4375 13.214844 -13.007812 12.273438 -14.058594 L 12.078125 -13.921875 C 12.65625 -12.339844 12.644531 -10.828125 12.046875 -9.386719 C 11.453125 -7.945312 10.375 -6.671875 8.816406 -5.566406 C 6.871094 -4.183594 4.933594 -3.597656 3.007812 -3.808594 C 1.078125 -4.019531 -0.558594 -5.070312 -1.90625 -6.964844 C -3.402344 -9.066406 -3.742188 -11.167969 -2.929688 -13.269531 C -2.117188 -15.371094 -0.234375 -17.472656 2.722656 -19.574219 L 5.953125 -21.875 L 5.234375 -22.886719 C 4.386719 -24.078125 3.464844 -24.78125 2.476562 -24.996094 C 1.484375 -25.207031 0.324219 -24.84375 -0.996094 -23.902344 C -2.21875 -23.035156 -3.039062 -22.101562 -3.457031 -21.097656 C -3.878906 -20.097656 -4.09375 -19.027344 -4.101562 -17.886719 L -9.25 -18.445312 C -9.386719 -20.070312 -8.996094 -21.761719 -8.082031 -23.523438 C -7.167969 -25.289062 -5.582031 -26.972656 -3.324219 -28.578125 C -0.574219 -30.535156 2.019531 -31.429688 4.460938 -31.269531 C 6.898438 -31.109375 9.023438 -29.757812 10.828125 -27.214844 L 17.085938 -18.417969 L 19.304688 -19.996094 L 22.265625 -15.832031 Z M 8.3125 -10.890625 C 9.324219 -11.609375 10.003906 -12.464844 10.355469 -13.457031 C 10.707031 -14.449219 10.546875 -15.410156 9.882812 -16.347656 L 8.167969 -18.757812 L 5.09375 -16.574219 C 2.730469 -14.894531 2.113281 -13.261719 3.238281 -11.679688 L 3.792969 -10.902344 C 4.292969 -10.199219 4.941406 -9.863281 5.746094 -9.886719 C 6.546875 -9.910156 7.40625 -10.246094 8.3125 -10.890625 Z M 8.3125 -10.890625 "/></g></g></g><g fill="#000000" fill-opacity="1"><g transform="translate(134.934417, 78.55394)"><g><path d="M 1.394531 -6.378906 L 6.722656 -8.363281 L 1.957031 -21.164062 L -3.367188 -19.179688 L -5.285156 -24.328125 L 6.667969 -28.777344 L 9.097656 -22.242188 L 9.414062 -22.359375 C 9.308594 -23.273438 9.296875 -24.195312 9.378906 -25.125 C 9.457031 -26.054688 9.671875 -26.933594 10.027344 -27.761719 C 10.378906 -28.589844 10.910156 -29.335938 11.609375 -30.007812 C 12.3125 -30.675781 13.230469 -31.222656 14.367188 -31.644531 L 16.558594 -32.460938 L 18.824219 -26.371094 L 13.902344 -24.539062 C 12.257812 -23.929688 11.203125 -22.984375 10.726562 -21.703125 C 10.253906 -20.421875 10.277344 -19.078125 10.796875 -17.675781 L 13.347656 -10.828125 L 20.957031 -13.660156 L 22.871094 -8.511719 L 3.3125 -1.234375 Z M 1.394531 -6.378906 "/></g></g></g><g fill="#000000" fill-opacity="1"><g transform="translate(159.918759, 68.987687)"><g><path d="M 14.984375 -0.84375 C 10.863281 -0.453125 7.632812 -1.300781 5.292969 -3.378906 C 2.953125 -5.460938 1.597656 -8.46875 1.222656 -12.398438 C 1.035156 -14.394531 1.140625 -16.21875 1.542969 -17.871094 C 1.945312 -19.527344 2.609375 -20.964844 3.53125 -22.1875 C 4.457031 -23.410156 5.628906 -24.386719 7.046875 -25.109375 C 8.464844 -25.835938 10.09375 -26.289062 11.929688 -26.460938 C 13.769531 -26.636719 15.445312 -26.5 16.960938 -26.050781 C 18.472656 -25.601562 19.789062 -24.886719 20.90625 -23.90625 C 22.019531 -22.925781 22.929688 -21.691406 23.628906 -20.207031 C 24.332031 -18.722656 24.769531 -17.027344 24.953125 -15.128906 L 25.148438 -13.035156 L 8.367188 -11.445312 L 8.40625 -11.015625 C 8.554688 -9.429688 9.167969 -8.203125 10.242188 -7.328125 C 11.316406 -6.453125 12.804688 -6.109375 14.707031 -6.289062 C 16.164062 -6.425781 17.390625 -6.824219 18.382812 -7.476562 C 19.378906 -8.128906 20.210938 -8.953125 20.886719 -9.945312 L 25.082031 -6.167969 C 24.242188 -4.90625 23.007812 -3.765625 21.375 -2.746094 C 19.746094 -1.730469 17.613281 -1.09375 14.984375 -0.84375 Z M 12.457031 -21.425781 C 10.933594 -21.28125 9.765625 -20.699219 8.953125 -19.679688 C 8.136719 -18.65625 7.804688 -17.355469 7.957031 -15.769531 L 7.992188 -15.390625 L 17.882812 -16.328125 L 17.84375 -16.707031 C 17.691406 -18.324219 17.136719 -19.550781 16.175781 -20.386719 C 15.21875 -21.222656 13.976562 -21.570312 12.457031 -21.425781 Z M 12.457031 -21.425781 "/></g></g></g><g fill="#000000" fill-opacity="1"><g transform="translate(186.527622, 66.212966)"><g><path d="M 3.0625 0.515625 L 7.164062 -23.785156 L 14.132812 -22.605469 L 13.386719 -18.179688 L 13.667969 -18.132812 C 14.066406 -18.777344 14.519531 -19.359375 15.03125 -19.890625 C 15.539062 -20.417969 16.121094 -20.859375 16.78125 -21.214844 C 17.4375 -21.574219 18.171875 -21.820312 18.988281 -21.957031 C 19.800781 -22.09375 20.695312 -22.082031 21.667969 -21.917969 C 22.832031 -21.71875 23.863281 -21.34375 24.773438 -20.789062 C 25.679688 -20.230469 26.410156 -19.5 26.96875 -18.601562 C 27.527344 -17.699219 27.90625 -16.648438 28.109375 -15.453125 C 28.3125 -14.257812 28.289062 -12.921875 28.039062 -11.445312 L 25.382812 4.285156 L 18.414062 3.109375 L 20.910156 -11.679688 C 21.441406 -14.820312 20.339844 -16.621094 17.609375 -17.082031 C 17.074219 -17.171875 16.535156 -17.1875 15.992188 -17.132812 C 15.453125 -17.082031 14.953125 -16.9375 14.492188 -16.710938 C 14.035156 -16.480469 13.652344 -16.164062 13.339844 -15.765625 C 13.03125 -15.367188 12.828125 -14.867188 12.726562 -14.273438 L 10.03125 1.691406 Z M 3.0625 0.515625 "/></g></g></g><g fill="#000000" fill-opacity="1"><g transform="translate(212.948081, 70.418838)"><g><path d="M 14.765625 6.753906 C 12.449219 5.695312 11.007812 4.296875 10.433594 2.566406 C 9.859375 0.832031 10.003906 -0.972656 10.863281 -2.855469 L 15.871094 -13.800781 L 9.789062 -16.582031 L 12.074219 -21.578125 L 16.027344 -19.769531 C 16.984375 -19.332031 17.75 -19.207031 18.328125 -19.398438 C 18.902344 -19.589844 19.425781 -20.191406 19.886719 -21.207031 L 22.292969 -26.460938 L 28.199219 -23.761719 L 24.582031 -15.855469 L 33.3125 -11.863281 L 31.027344 -6.867188 L 22.296875 -10.859375 L 16.617188 1.5625 L 25.347656 5.554688 L 23.0625 10.546875 Z M 14.765625 6.753906 "/></g></g></g><g fill="#000000" fill-opacity="1"><g transform="translate(237.380092, 81.318732)"><g><path d="M 28.785156 -19.457031 L 15.335938 -3.1875 C 14.667969 -2.375 14.082031 -1.609375 13.585938 -0.882812 C 13.089844 -0.15625 12.765625 0.535156 12.613281 1.195312 C 12.460938 1.851562 12.511719 2.503906 12.765625 3.148438 C 13.019531 3.789062 13.550781 4.445312 14.359375 5.117188 C 15.171875 5.785156 15.914062 6.183594 16.59375 6.3125 C 17.273438 6.441406 17.921875 6.367188 18.539062 6.09375 C 19.160156 5.820312 19.777344 5.371094 20.398438 4.746094 C 21.015625 4.121094 21.660156 3.40625 22.332031 2.59375 L 35.78125 -13.675781 L 41.300781 -9.109375 L 28.460938 6.421875 C 27 8.191406 25.605469 9.640625 24.277344 10.773438 C 22.949219 11.90625 21.585938 12.640625 20.195312 12.976562 C 18.800781 13.3125 17.332031 13.210938 15.789062 12.679688 C 14.246094 12.148438 12.542969 11.113281 10.679688 9.570312 C 8.8125 8.027344 7.472656 6.550781 6.660156 5.132812 C 5.847656 3.71875 5.476562 2.296875 5.542969 0.863281 C 5.613281 -0.566406 6.078125 -2.042969 6.9375 -3.558594 C 7.800781 -5.078125 8.960938 -6.71875 10.421875 -8.488281 L 23.265625 -24.019531 Z M 28.785156 -19.457031 "/></g></g></g><g fill="#000000" fill-opacity="1"><g transform="translate(258.158994, 98.170036)"><g><path d="M 21.714844 -11.988281 L 25.8125 -6.226562 L 22.152344 -3.625 L 22.347656 -3.355469 C 23.890625 -3.710938 25.386719 -3.699219 26.828125 -3.316406 C 28.269531 -2.9375 29.566406 -1.941406 30.707031 -0.332031 C 31.503906 0.78125 32.019531 1.949219 32.257812 3.164062 C 32.5 4.378906 32.425781 5.625 32.039062 6.894531 C 31.65625 8.164062 30.933594 9.460938 29.878906 10.777344 C 28.824219 12.09375 27.386719 13.398438 25.570312 14.691406 C 23.753906 15.984375 22.050781 16.910156 20.460938 17.476562 C 18.871094 18.042969 17.410156 18.296875 16.085938 18.246094 C 14.757812 18.191406 13.558594 17.851562 12.488281 17.226562 C 11.417969 16.601562 10.484375 15.730469 9.691406 14.617188 C 8.546875 13.007812 8.027344 11.464844 8.128906 9.984375 C 8.230469 8.507812 8.714844 7.085938 9.582031 5.726562 L 9.390625 5.453125 L -2.054688 13.59375 L -6.152344 7.832031 Z M 12.398438 8.941406 C 13.320312 10.238281 14.425781 10.957031 15.714844 11.09375 C 17.003906 11.230469 18.351562 10.800781 19.75 9.804688 L 22.863281 7.589844 C 24.265625 6.59375 25.113281 5.464844 25.40625 4.199219 C 25.699219 2.9375 25.382812 1.65625 24.460938 0.359375 C 23.742188 -0.652344 22.871094 -1.351562 21.851562 -1.742188 C 20.835938 -2.128906 19.792969 -1.945312 18.730469 -1.191406 L 12.8125 3.019531 C 11.75 3.773438 11.234375 4.699219 11.265625 5.789062 C 11.300781 6.878906 11.675781 7.929688 12.398438 8.941406 Z M 12.398438 8.941406 "/></g></g></g></svg>