<svg xmlns="http://www.w3.org/2000/svg" xmlns:xlink="http://www.w3.org/1999/xlink" width="500" zoomAndPan="magnify" viewBox="0 0 375 374.999991" height="500" preserveAspectRatio="xMidYMid meet" version="1.0"><defs><clipPath id="147ee69c55"><path d="M 48 4.023438 L 324 4.023438 L 324 363 L 48 363 Z M 48 4.023438 " clip-rule="nonzero"/></clipPath></defs><g clip-path="url(#147ee69c55)"><path fill="#b05841" d="M 292.894531 355.34375 C 292.578125 355.492188 292.261719 355.628906 291.945312 355.757812 C 273.640625 363.601562 254.894531 356.125 249.609375 353.796875 C 230.125 357.050781 207.535156 359.535156 182.375 359.988281 C 162.300781 360.347656 143.902344 359.347656 127.492188 357.660156 C 115.246094 362.757812 102.34375 364.191406 90.695312 361.925781 C 82.542969 360.347656 75.011719 356.957031 68.734375 351.746094 C 53.285156 338.910156 46.441406 315.847656 49.558594 302.066406 L 49.558594 302.054688 C 50.421875 298.222656 52.054688 295.105469 54.496094 293.125 C 57.035156 291.074219 63.175781 288.03125 78.003906 293.527344 C 79.394531 290.503906 81.679688 286.429688 85.398438 282.332031 C 90.179688 277.058594 95.265625 274.046875 98.613281 272.394531 C 98.949219 258.5625 99.546875 244.476562 100.4375 230.148438 C 105.042969 156.03125 116.699219 88.101562 131.90625 27.152344 C 124.6875 23.339844 121.539062 16.125 123.472656 10.691406 C 124.601562 7.535156 127.695312 4.277344 130.972656 4.253906 C 136.285156 4.222656 142.027344 12.699219 143.953125 25.949219 C 160.882812 25.285156 179.152344 25.414062 198.5625 26.75 C 206.144531 27.273438 213.511719 27.953125 220.644531 28.757812 C 223.960938 13.828125 230.769531 4.105469 237.109375 4.269531 C 239.683594 4.335938 242.28125 6.039062 243.535156 8.285156 C 246.421875 13.472656 242.734375 22.6875 233.09375 30.363281 C 246.175781 80.5 257.714844 135.773438 266.019531 195.761719 C 269.570312 221.40625 272.304688 246.292969 274.359375 270.339844 C 277.972656 271.636719 282.773438 273.867188 287.609375 277.761719 C 290.03125 279.710938 291.988281 281.703125 293.558594 283.523438 C 296.066406 282.566406 301.382812 280.945312 307.839844 282.1875 C 312.988281 283.175781 317.242188 285.554688 318.917969 287.335938 C 319.675781 288.136719 320.328125 289.09375 320.910156 290.1875 C 328.449219 304.675781 319.71875 343.066406 292.894531 355.34375 Z M 292.894531 355.34375 " fill-opacity="1" fill-rule="nonzero"/></g><path fill="#de7b5c" d="M 292.894531 355.34375 C 292.578125 355.492188 292.261719 355.628906 291.945312 355.757812 C 279.445312 342.382812 295.191406 293.726562 316.824219 290.304688 C 318.253906 290.082031 319.625 290.0625 320.910156 290.1875 C 328.449219 304.675781 319.71875 343.066406 292.894531 355.34375 Z M 292.894531 355.34375 " fill-opacity="1" fill-rule="nonzero"/><path fill="#de7b5c" d="M 90.695312 361.925781 C 82.542969 360.347656 75.011719 356.957031 68.738281 351.746094 C 53.285156 338.910156 46.441406 315.847656 49.558594 302.066406 L 49.558594 302.054688 C 51.84375 300.84375 54.941406 299.761719 58.542969 299.929688 C 80.269531 300.9375 101.132812 346.921875 90.695312 361.925781 Z M 90.695312 361.925781 " fill-opacity="1" fill-rule="nonzero"/><path fill="#022b3a" d="M 137.441406 15.824219 C 139.511719 19 139.855469 23.871094 138.09375 24.875 C 135.523438 26.339844 127.289062 20.230469 127.890625 14.949219 C 127.910156 14.761719 128.191406 12.546875 129.753906 11.761719 C 132.023438 10.621094 135.691406 13.140625 137.441406 15.824219 Z M 137.441406 15.824219 " fill-opacity="1" fill-rule="nonzero"/><path fill="#022b3a" d="M 227.109375 19.335938 C 224.910156 22.710938 224.542969 27.886719 226.414062 28.953125 C 229.148438 30.507812 237.894531 24.019531 237.257812 18.40625 C 237.238281 18.207031 236.9375 15.855469 235.277344 15.019531 C 232.867188 13.808594 228.96875 16.484375 227.109375 19.335938 Z M 227.109375 19.335938 " fill-opacity="1" fill-rule="nonzero"/><path fill="#f7f0f5" d="M 214.550781 85.332031 C 213.753906 88.121094 211.003906 97.195312 201.140625 103.183594 C 191.875 108.8125 177.3125 111.121094 166.753906 104.640625 C 158.0625 99.308594 156.214844 90.558594 155.550781 87.40625 C 155.265625 86.058594 151.28125 65.332031 168.960938 55.242188 C 181.378906 48.160156 198.75 49.296875 208.550781 58.417969 C 219.359375 68.472656 215.183594 83.105469 214.550781 85.332031 Z M 214.550781 85.332031 " fill-opacity="1" fill-rule="nonzero"/><path fill="#022b3a" d="M 203.148438 63.203125 C 204.519531 66.40625 203.855469 70.382812 202.035156 73.105469 C 196.136719 81.9375 175.414062 81.621094 169.484375 72.242188 C 167.671875 69.371094 166.851562 65.042969 168.5625 61.679688 C 171.832031 55.253906 182.601562 55.765625 186.265625 55.941406 C 190.09375 56.125 200.324219 56.609375 203.148438 63.203125 Z M 203.148438 63.203125 " fill-opacity="1" fill-rule="nonzero"/><path fill="#022b3a" d="M 153.292969 48.269531 C 155.339844 49.484375 155.316406 54.632812 153.316406 55.660156 C 152.464844 56.097656 151.519531 55.648438 151.460938 55.617188 C 149.503906 54.652344 150.042969 50.929688 150.117188 50.476562 C 150.253906 49.601562 150.417969 48.632812 151.199219 48.191406 C 151.84375 47.824219 152.714844 47.929688 153.292969 48.269531 Z M 153.292969 48.269531 " fill-opacity="1" fill-rule="nonzero"/><path fill="#022b3a" d="M 213.792969 48.339844 C 215.730469 49.722656 215.257812 54.847656 213.179688 55.699219 C 212.292969 56.0625 211.390625 55.535156 211.332031 55.5 C 209.464844 54.371094 210.328125 50.703125 210.4375 50.257812 C 210.648438 49.402344 210.902344 48.449219 211.714844 48.074219 C 212.386719 47.765625 213.25 47.949219 213.792969 48.339844 Z M 213.792969 48.339844 " fill-opacity="1" fill-rule="nonzero"/><path fill="#022b3a" d="M 187.832031 69.929688 C 187.742188 76.371094 187.640625 84.332031 187.824219 90.730469 C 187.890625 93.027344 187.945312 95.316406 188.042969 97.5625 L 184.148438 97.992188 C 182.832031 88.609375 183.425781 79.164062 183.914062 69.746094 C 183.914062 69.746094 187.832031 69.929688 187.832031 69.929688 Z M 187.832031 69.929688 " fill-opacity="1" fill-rule="nonzero"/><path fill="#022b3a" d="M 185.359375 98.941406 C 184.566406 98.941406 183.933594 98.835938 183.546875 98.746094 C 178.113281 97.519531 176.203125 91.269531 176.003906 90.5625 L 179.777344 89.496094 C 179.828125 89.6875 181.132812 94.183594 184.414062 94.925781 C 184.628906 94.972656 185.386719 95.117188 186.320312 94.925781 C 190.003906 94.1875 191.808594 89.050781 191.882812 88.835938 L 195.589844 90.109375 C 195.160156 91.355469 192.738281 97.632812 187.09375 98.769531 C 186.464844 98.894531 185.878906 98.941406 185.359375 98.941406 Z M 185.359375 98.941406 " fill-opacity="1" fill-rule="nonzero"/><path fill="#ffc0de" d="M 148.027344 63.464844 C 146.195312 67.671875 140.679688 67.855469 139.941406 67.867188 C 138.695312 67.890625 135.609375 67.941406 133.695312 65.628906 C 131.878906 63.429688 131.957031 60.113281 133.207031 58.011719 C 135.882812 53.503906 144.777344 53.183594 147.613281 57.230469 C 148.886719 59.046875 148.835938 61.601562 148.027344 63.464844 Z M 148.027344 63.464844 " fill-opacity="1" fill-rule="nonzero"/><path fill="#ffc0de" d="M 234.886719 60.40625 C 233.054688 64.617188 227.539062 64.796875 226.800781 64.808594 C 225.550781 64.832031 222.46875 64.886719 220.554688 62.570312 C 218.738281 60.371094 218.816406 57.054688 220.066406 54.953125 C 222.742188 50.449219 231.636719 50.128906 234.472656 54.171875 C 235.746094 55.988281 235.695312 58.542969 234.886719 60.40625 Z M 234.886719 60.40625 " fill-opacity="1" fill-rule="nonzero"/><path fill="#f4a259" d="M 219.707031 181.613281 C 219.738281 173.25 223.1875 167.71875 226.792969 167.367188 C 229.203125 167.132812 231.496094 169.21875 232.558594 170.949219 C 235.054688 175.011719 233.460938 181.472656 228.007812 186.554688 C 230.238281 200.011719 233.101562 217.582031 236.304688 238.175781 C 249.683594 324.136719 249.847656 339.34375 239.65625 349.949219 C 228.6875 361.363281 211.445312 361.488281 183.472656 361.691406 C 161.121094 361.855469 142.101562 361.871094 129.898438 349.746094 C 118.324219 338.242188 118.914062 321.746094 121.867188 287.71875 C 124.257812 260.175781 127.875 224.804688 133.535156 183.367188 C 126.097656 178.375 123.699219 171.378906 126.015625 167.566406 C 127.269531 165.511719 130.023438 164.167969 132.441406 164.449219 C 137.019531 164.980469 141.324219 171.441406 141.007812 180.832031 C 151.796875 179.445312 164.109375 178.484375 177.679688 178.492188 C 193.464844 178.5 207.605469 179.808594 219.707031 181.613281 Z M 219.707031 181.613281 " fill-opacity="1" fill-rule="nonzero"/><path fill="#f4a259" d="M 143.925781 365.660156 C 139.425781 369.757812 132.859375 370.664062 127.78125 369.5 C 112.214844 365.9375 101 340.757812 110.949219 326.210938 C 115.617188 319.390625 125.253906 314.441406 133.316406 316.691406 C 149.59375 321.230469 156.453125 354.257812 143.925781 365.660156 Z M 143.925781 365.660156 " fill-opacity="1" fill-rule="nonzero"/><path fill="#ce8144" d="M 137.648438 362.277344 C 134.351562 365.28125 129.539062 365.941406 125.820312 365.089844 C 114.410156 362.480469 106.191406 344.03125 113.484375 333.367188 C 116.902344 328.371094 123.964844 324.746094 129.875 326.390625 C 141.800781 329.71875 146.828125 353.921875 137.648438 362.277344 Z M 137.648438 362.277344 " fill-opacity="1" fill-rule="nonzero"/><path fill="#f4a259" d="M 229.738281 364.261719 C 234.242188 368.363281 240.804688 369.265625 245.882812 368.105469 C 261.453125 364.542969 272.667969 339.363281 262.71875 324.816406 C 258.050781 317.992188 248.414062 313.046875 240.351562 315.292969 C 224.074219 319.832031 217.214844 352.859375 229.738281 364.261719 Z M 229.738281 364.261719 " fill-opacity="1" fill-rule="nonzero"/><path fill="#ce8144" d="M 236.015625 360.878906 C 239.316406 363.882812 244.125 364.546875 247.847656 363.695312 C 259.253906 361.085938 267.476562 342.632812 260.183594 331.972656 C 256.761719 326.972656 249.699219 323.347656 243.792969 324.996094 C 231.863281 328.320312 226.839844 352.523438 236.015625 360.878906 Z M 236.015625 360.878906 " fill-opacity="1" fill-rule="nonzero"/><path fill="#f7f0f5" d="M 199.320312 216.101562 C 199.488281 218.058594 200.878906 227.699219 193.78125 232.71875 C 186.847656 237.621094 175.40625 237.289062 169.097656 232.5 C 163.261719 228.066406 163.984375 220.089844 164.082031 216.457031 C 164.1875 212.578125 164.398438 204.789062 170.652344 200.042969 C 177.738281 194.664062 186.589844 197.746094 187.007812 197.898438 C 197.871094 201.886719 199.230469 215.074219 199.320312 216.101562 Z M 199.320312 216.101562 " fill-opacity="1" fill-rule="nonzero"/><path fill="#022b3a" d="M 170.96875 205.667969 C 170.089844 207.628906 170.460938 210.085938 171.550781 211.78125 C 175.09375 217.28125 187.863281 217.300781 191.609375 211.585938 C 192.757812 209.835938 193.304688 207.175781 192.285156 205.089844 C 190.339844 201.097656 183.703125 201.300781 181.441406 201.371094 C 179.082031 201.445312 172.777344 201.636719 170.96875 205.667969 Z M 170.96875 205.667969 " fill-opacity="1" fill-rule="nonzero"/><path fill="#022b3a" d="M 180.320312 228.875 C 178.546875 218.992188 180.042969 208.816406 180.109375 208.386719 L 183.210938 208.855469 C 183.195312 208.957031 181.726562 218.960938 183.40625 228.320312 Z M 180.320312 228.875 " fill-opacity="1" fill-rule="nonzero"/><path fill="#ffc0de" d="M 147.671875 210.644531 C 146.300781 213.585938 142.40625 213.613281 141.882812 213.609375 C 141 213.605469 138.824219 213.585938 137.511719 211.917969 C 136.269531 210.332031 136.382812 207.992188 137.300781 206.53125 C 139.273438 203.398438 145.558594 203.328125 147.488281 206.234375 C 148.355469 207.539062 148.273438 209.34375 147.671875 210.644531 Z M 147.671875 210.644531 " fill-opacity="1" fill-rule="nonzero"/><path fill="#ffc0de" d="M 224 208.761719 C 222.632812 211.703125 218.734375 211.734375 218.210938 211.730469 C 217.332031 211.722656 215.152344 211.707031 213.84375 210.035156 C 212.597656 208.453125 212.710938 206.109375 213.628906 204.648438 C 215.601562 201.515625 221.886719 201.445312 223.816406 204.351562 C 224.683594 205.65625 224.605469 207.460938 224 208.761719 Z M 224 208.761719 " fill-opacity="1" fill-rule="nonzero"/><path fill="#022b3a" d="M 152.34375 195.359375 C 152.496094 197.871094 152.949219 204.257812 155.972656 204.585938 C 157.65625 204.613281 158.824219 203.417969 159.601562 201.917969 C 160.445312 200.265625 160.914062 198.246094 161.175781 196.253906 L 163.523438 196.410156 C 163.394531 200.378906 162.28125 205.613281 157.976562 207.199219 C 151.082031 209.417969 149.421875 200.175781 149.996094 195.300781 C 149.996094 195.300781 152.34375 195.359375 152.34375 195.359375 Z M 152.34375 195.359375 " fill-opacity="1" fill-rule="nonzero"/><path fill="#022b3a" d="M 202.175781 195.863281 C 202.300781 198.378906 202.753906 204.808594 205.800781 205.109375 C 207.496094 205.136719 208.671875 203.9375 209.441406 202.429688 C 210.289062 200.773438 210.75 198.75 211.007812 196.757812 L 213.351562 196.917969 C 213.214844 200.878906 212.097656 206.097656 207.800781 207.683594 C 200.925781 209.890625 199.289062 200.660156 199.824219 195.804688 C 199.824219 195.804688 202.175781 195.863281 202.175781 195.863281 Z M 202.175781 195.863281 " fill-opacity="1" fill-rule="nonzero"/><path fill="#022b3a" d="M 171.867188 220.878906 C 173.984375 227.621094 181.25 228.996094 186.179688 224.261719 C 187.585938 222.871094 188.5625 221 189.019531 218.953125 L 191.351562 219.277344 C 191.027344 227.558594 180.492188 233.179688 173.703125 227.976562 C 171.578125 226.363281 170.199219 224.03125 169.59375 221.46875 Z M 171.867188 220.878906 " fill-opacity="1" fill-rule="nonzero"/><path fill="#f9cd7d" d="M 217.480469 302.84375 C 217.503906 308.320312 217.582031 326.285156 203.414062 336.703125 C 190.945312 345.867188 173.757812 344.546875 161.898438 337.148438 C 142.835938 325.265625 143.746094 301.578125 143.871094 298.277344 C 144.058594 293.421875 144.773438 274.804688 160.054688 265.003906 C 173.042969 256.675781 189.789062 259.046875 200.964844 266.789062 C 217.375 278.160156 217.460938 298.125 217.480469 302.84375 Z M 217.480469 302.84375 " fill-opacity="1" fill-rule="nonzero"/><path fill="#f4a259" d="M 205.808594 252.210938 C 217.199219 253.820312 228.585938 255.425781 239.972656 257.03125 C 239.074219 262.167969 237.167969 270.542969 232.722656 279.996094 C 225.214844 295.964844 208.488281 319.207031 195.617188 315.976562 C 190.230469 314.625 187.636719 309.167969 187.464844 308.792969 C 184.121094 301.480469 189.59375 293.953125 196.066406 279.351562 C 198.746094 273.304688 202.445312 264.128906 205.808594 252.210938 Z M 205.808594 252.210938 " fill-opacity="1" fill-rule="nonzero"/><path fill="#f4a259" d="M 159.929688 252.210938 C 148.542969 253.820312 137.152344 255.425781 125.765625 257.03125 C 126.664062 262.167969 128.570312 270.542969 133.015625 279.996094 C 140.523438 295.964844 157.25 319.207031 170.121094 315.976562 C 175.507812 314.625 178.101562 309.167969 178.273438 308.792969 C 181.617188 301.480469 176.144531 293.953125 169.671875 279.351562 C 166.992188 273.304688 163.292969 264.128906 159.929688 252.210938 Z M 159.929688 252.210938 " fill-opacity="1" fill-rule="nonzero"/><path fill="#b05841" d="M 279.644531 216.308594 C 269.847656 246.628906 234.925781 268.15625 220.355469 260.097656 C 219.945312 259.871094 219.558594 259.625 219.191406 259.351562 C 218.042969 258.53125 217.058594 257.527344 216.234375 256.410156 C 215.257812 255.097656 214.496094 253.636719 213.882812 252.140625 C 213.339844 250.796875 212.921875 249.429688 212.601562 248.132812 C 211.671875 244.289062 211.59375 240.976562 211.585938 240.394531 C 211.367188 221.960938 228.757812 214.554688 240.570312 192.917969 C 245.699219 183.515625 251.265625 168.671875 250.738281 146.457031 C 255.714844 148.917969 268.085938 155.859375 276.035156 170.542969 C 286.964844 190.75 281.460938 210.710938 279.644531 216.308594 Z M 279.644531 216.308594 " fill-opacity="1" fill-rule="nonzero"/><path fill="#b05841" d="M 149.238281 242.746094 C 149.230469 243.367188 149.144531 247.148438 147.996094 251.347656 C 147.640625 252.636719 147.191406 253.964844 146.609375 255.253906 C 145.972656 256.675781 145.179688 258.054688 144.179688 259.273438 C 143.300781 260.371094 142.246094 261.355469 141.011719 262.117188 C 140.832031 262.234375 140.648438 262.347656 140.46875 262.449219 C 125.898438 270.5 90.976562 248.980469 81.171875 218.660156 C 79.363281 213.0625 73.859375 193.09375 84.789062 172.894531 C 92.730469 158.210938 105.109375 151.257812 110.085938 148.808594 C 109.550781 171.023438 115.125 185.867188 120.253906 195.261719 C 132.054688 216.90625 149.457031 224.304688 149.238281 242.746094 Z M 149.238281 242.746094 " fill-opacity="1" fill-rule="nonzero"/><path fill="#022b3a" d="M 144.179688 259.273438 C 143.300781 260.371094 142.246094 261.355469 141.011719 262.117188 C 132.730469 258.046875 127.417969 252.941406 127.15625 252.699219 L 129.894531 249.878906 C 129.949219 249.933594 135.648438 255.378906 144.179688 259.273438 Z M 144.179688 259.273438 " fill-opacity="1" fill-rule="nonzero"/><path fill="#022b3a" d="M 147.996094 251.347656 C 147.640625 252.636719 147.191406 253.964844 146.609375 255.253906 C 140.707031 250.679688 133.902344 244.105469 133.527344 243.753906 L 136.261719 240.921875 C 136.347656 241 142.492188 246.9375 147.996094 251.347656 Z M 147.996094 251.347656 " fill-opacity="1" fill-rule="nonzero"/><path fill="#022b3a" d="M 232.652344 250.121094 C 232.402344 250.363281 227.242188 255.308594 219.191406 259.351562 C 218.042969 258.53125 217.058594 257.527344 216.234375 256.410156 C 224.425781 252.550781 229.859375 247.355469 229.921875 247.296875 Z M 232.652344 250.121094 " fill-opacity="1" fill-rule="nonzero"/><path fill="#022b3a" d="M 226.28125 241.175781 C 225.921875 241.519531 219.613281 247.605469 213.882812 252.140625 C 213.339844 250.796875 212.921875 249.429688 212.601562 248.132812 C 217.890625 243.808594 223.46875 238.421875 223.546875 238.34375 Z M 226.28125 241.175781 " fill-opacity="1" fill-rule="nonzero"/><path fill="#de7b5c" d="M 212.332031 151.726562 C 212.34375 147.085938 212.488281 146.023438 213.316406 145.542969 C 213.390625 145.496094 213.964844 145.171875 214.570312 145.363281 C 216.25 145.894531 216.222656 149.816406 216.210938 151.046875 C 216.203125 152.230469 216.175781 156.332031 214.390625 156.898438 C 214.367188 156.90625 213.761719 157.085938 213.207031 156.773438 C 212.402344 156.320312 212.324219 155.183594 212.332031 151.726562 Z M 212.332031 151.726562 " fill-opacity="1" fill-rule="nonzero"/><path fill="#de7b5c" d="M 152.882812 134.636719 C 152.890625 129.992188 153.039062 128.929688 153.863281 128.449219 C 153.941406 128.40625 154.515625 128.082031 155.117188 128.273438 C 156.796875 128.804688 156.769531 132.722656 156.761719 133.953125 C 156.753906 135.136719 156.726562 139.242188 154.941406 139.804688 C 154.914062 139.8125 154.308594 139.992188 153.753906 139.679688 C 152.953125 139.226562 152.875 138.089844 152.882812 134.636719 Z M 152.882812 134.636719 " fill-opacity="1" fill-rule="nonzero"/><path fill="#de7b5c" d="M 99.324219 215.851562 C 99.332031 211.210938 99.480469 210.148438 100.304688 209.667969 C 100.378906 209.621094 100.957031 209.296875 101.558594 209.488281 C 103.238281 210.019531 103.210938 213.941406 103.203125 215.171875 C 103.195312 216.355469 103.167969 220.460938 101.382812 221.023438 C 101.355469 221.03125 100.75 221.210938 100.195312 220.898438 C 99.394531 220.445312 99.316406 219.308594 99.324219 215.851562 Z M 99.324219 215.851562 " fill-opacity="1" fill-rule="nonzero"/><path fill="#de7b5c" d="M 255.179688 269.953125 C 255.1875 265.3125 255.335938 264.25 256.160156 263.769531 C 256.234375 263.722656 256.8125 263.398438 257.414062 263.589844 C 259.09375 264.121094 259.066406 268.042969 259.058594 269.273438 C 259.050781 270.457031 259.019531 274.558594 257.238281 275.125 C 257.210938 275.132812 256.605469 275.3125 256.050781 275 C 255.25 274.546875 255.171875 273.410156 255.179688 269.953125 Z M 255.179688 269.953125 " fill-opacity="1" fill-rule="nonzero"/><path fill="#de7b5c" d="M 105.242188 171.589844 C 105.253906 166.949219 105.402344 165.886719 106.226562 165.402344 C 106.300781 165.359375 106.878906 165.035156 107.480469 165.226562 C 109.160156 165.757812 109.132812 169.675781 109.125 170.90625 C 109.117188 172.089844 109.085938 176.195312 107.304688 176.757812 C 107.277344 176.765625 106.671875 176.949219 106.117188 176.636719 C 105.316406 176.183594 105.238281 175.046875 105.242188 171.589844 Z M 105.242188 171.589844 " fill-opacity="1" fill-rule="nonzero"/><path fill="#de7b5c" d="M 233.527344 112.695312 C 233.535156 108.054688 233.683594 106.988281 234.507812 106.507812 C 234.582031 106.464844 235.160156 106.140625 235.761719 106.332031 C 237.441406 106.863281 237.414062 110.78125 237.40625 112.011719 C 237.398438 113.195312 237.367188 117.300781 235.585938 117.863281 C 235.558594 117.871094 234.953125 118.054688 234.398438 117.738281 C 233.597656 117.289062 233.519531 116.152344 233.527344 112.695312 Z M 233.527344 112.695312 " fill-opacity="1" fill-rule="nonzero"/><path fill="#de7b5c" d="M 245.171875 209.460938 C 245.183594 204.820312 245.332031 203.753906 246.15625 203.273438 C 246.230469 203.230469 246.808594 202.90625 247.410156 203.097656 C 249.089844 203.628906 249.0625 207.546875 249.054688 208.777344 C 249.046875 209.960938 249.015625 214.066406 247.234375 214.628906 C 247.207031 214.636719 246.601562 214.820312 246.046875 214.503906 C 245.246094 214.054688 245.167969 212.917969 245.171875 209.460938 Z M 245.171875 209.460938 " fill-opacity="1" fill-rule="nonzero"/><path fill="#de7b5c" d="M 269.449219 293.058594 C 269.457031 288.414062 269.605469 287.351562 270.429688 286.871094 C 270.507812 286.824219 271.082031 286.5 271.683594 286.691406 C 273.363281 287.226562 273.335938 291.144531 273.328125 292.375 C 273.320312 293.558594 273.292969 297.664062 271.507812 298.226562 C 271.484375 298.234375 270.875 298.414062 270.320312 298.101562 C 269.519531 297.648438 269.441406 296.511719 269.449219 293.058594 Z M 269.449219 293.058594 " fill-opacity="1" fill-rule="nonzero"/><path fill="#de7b5c" d="M 108.785156 287.175781 C 108.792969 282.53125 108.941406 281.46875 109.765625 280.988281 C 109.84375 280.941406 110.417969 280.617188 111.023438 280.808594 C 112.699219 281.339844 112.671875 285.261719 112.664062 286.492188 C 112.65625 287.675781 112.628906 291.78125 110.84375 292.34375 C 110.820312 292.351562 110.210938 292.53125 109.65625 292.21875 C 108.855469 291.765625 108.777344 290.628906 108.785156 287.175781 Z M 108.785156 287.175781 " fill-opacity="1" fill-rule="nonzero"/><path fill="#de7b5c" d="M 95.441406 311.859375 C 95.449219 307.21875 95.597656 306.15625 96.421875 305.671875 C 96.5 305.628906 97.074219 305.304688 97.679688 305.496094 C 99.355469 306.027344 99.328125 309.945312 99.320312 311.175781 C 99.3125 312.359375 99.285156 316.464844 97.5 317.027344 C 97.476562 317.035156 96.867188 317.21875 96.3125 316.90625 C 95.511719 316.453125 95.433594 315.316406 95.441406 311.859375 Z M 95.441406 311.859375 " fill-opacity="1" fill-rule="nonzero"/><path fill="#de7b5c" d="M 259.058594 173.554688 C 259.070312 168.910156 259.21875 167.847656 260.042969 167.367188 C 260.117188 167.324219 260.691406 167 261.296875 167.191406 C 262.976562 167.722656 262.949219 171.640625 262.941406 172.871094 C 262.933594 174.054688 262.902344 178.160156 261.117188 178.722656 C 261.09375 178.730469 260.488281 178.910156 259.933594 178.597656 C 259.132812 178.144531 259.054688 177.007812 259.058594 173.554688 Z M 259.058594 173.554688 " fill-opacity="1" fill-rule="nonzero"/><path fill="#de7b5c" d="M 185.769531 159.046875 C 185.777344 154.40625 185.925781 153.34375 186.75 152.859375 C 186.824219 152.816406 187.402344 152.492188 188.003906 152.683594 C 189.683594 153.214844 189.65625 157.136719 189.648438 158.363281 C 189.640625 159.546875 189.613281 163.652344 187.828125 164.214844 C 187.800781 164.222656 187.195312 164.40625 186.640625 164.09375 C 185.839844 163.640625 185.761719 162.503906 185.769531 159.046875 Z M 185.769531 159.046875 " fill-opacity="1" fill-rule="nonzero"/><path fill="#de7b5c" d="M 126.84375 118.523438 C 126.851562 113.878906 127 112.816406 127.824219 112.335938 C 127.902344 112.289062 128.476562 111.964844 129.082031 112.15625 C 130.757812 112.6875 130.730469 116.609375 130.722656 117.839844 C 130.714844 119.023438 130.6875 123.128906 128.902344 123.691406 C 128.878906 123.699219 128.269531 123.878906 127.714844 123.566406 C 126.914062 123.113281 126.835938 121.976562 126.84375 118.523438 Z M 126.84375 118.523438 " fill-opacity="1" fill-rule="nonzero"/><path fill="#ce8144" d="M 218.777344 276.136719 C 219.085938 279.335938 219.257812 280.058594 219.855469 280.339844 C 219.910156 280.363281 220.328125 280.550781 220.734375 280.378906 C 221.855469 279.902344 221.582031 277.203125 221.496094 276.355469 C 221.410156 275.539062 221.125 272.710938 219.855469 272.441406 C 219.839844 272.4375 219.410156 272.351562 219.046875 272.601562 C 218.523438 272.96875 218.542969 273.753906 218.777344 276.136719 Z M 218.777344 276.136719 " fill-opacity="1" fill-rule="nonzero"/><path fill="#ce8144" d="M 232.089844 302.179688 C 231.050781 301.792969 230.878906 300.089844 230.6875 298.191406 C 230.5 296.332031 230.332031 294.449219 231.351562 293.777344 C 231.476562 293.695312 231.675781 293.566406 231.929688 293.585938 C 233.046875 293.667969 233.652344 296.480469 233.820312 297.933594 C 233.9375 298.925781 234.246094 301.574219 233.0625 302.152344 C 232.617188 302.371094 232.144531 302.199219 232.089844 302.179688 Z M 232.089844 302.179688 " fill-opacity="1" fill-rule="nonzero"/><path fill="#ce8144" d="M 200.835938 295.230469 C 199.796875 294.839844 199.625 293.140625 199.433594 291.242188 C 199.246094 289.382812 199.078125 287.5 200.097656 286.828125 C 200.222656 286.746094 200.417969 286.617188 200.675781 286.632812 C 201.792969 286.714844 202.394531 289.53125 202.566406 290.984375 C 202.683594 291.976562 202.992188 294.625 201.808594 295.203125 C 201.363281 295.421875 200.886719 295.25 200.835938 295.230469 Z M 200.835938 295.230469 " fill-opacity="1" fill-rule="nonzero"/><path fill="#ce8144" d="M 195.472656 256.398438 C 194.4375 256.011719 194.265625 254.308594 194.074219 252.410156 C 193.886719 250.550781 193.71875 248.667969 194.738281 247.996094 C 194.863281 247.914062 195.058594 247.785156 195.316406 247.804688 C 196.429688 247.886719 197.035156 250.699219 197.207031 252.152344 C 197.320312 253.144531 197.632812 255.792969 196.449219 256.371094 C 196 256.589844 195.527344 256.417969 195.472656 256.398438 Z M 195.472656 256.398438 " fill-opacity="1" fill-rule="nonzero"/><path fill="#ce8144" d="M 150.554688 284.96875 C 149.566406 284.472656 149.574219 282.761719 149.582031 280.855469 C 149.59375 278.984375 149.625 277.09375 150.710938 276.535156 C 150.84375 276.464844 151.050781 276.359375 151.304688 276.402344 C 152.40625 276.601562 152.710938 279.464844 152.726562 280.929688 C 152.738281 281.925781 152.765625 284.59375 151.527344 285.042969 C 151.0625 285.210938 150.609375 284.992188 150.554688 284.96875 Z M 150.554688 284.96875 " fill-opacity="1" fill-rule="nonzero"/><path fill="#ce8144" d="M 160.078125 355.410156 C 159.085938 354.914062 159.097656 353.207031 159.105469 351.296875 C 159.117188 349.429688 159.148438 347.539062 160.234375 346.976562 C 160.363281 346.910156 160.574219 346.800781 160.828125 346.847656 C 161.929688 347.046875 162.234375 349.910156 162.25 351.371094 C 162.257812 352.367188 162.289062 355.035156 161.050781 355.484375 C 160.582031 355.65625 160.128906 355.4375 160.078125 355.410156 Z M 160.078125 355.410156 " fill-opacity="1" fill-rule="nonzero"/><path fill="#ce8144" d="M 200.390625 351.054688 C 199.402344 350.558594 199.410156 348.847656 199.417969 346.941406 C 199.429688 345.070312 199.460938 343.179688 200.546875 342.621094 C 200.679688 342.550781 200.886719 342.441406 201.140625 342.488281 C 202.242188 342.6875 202.546875 345.550781 202.5625 347.015625 C 202.574219 348.011719 202.601562 350.679688 201.363281 351.128906 C 200.898438 351.296875 200.445312 351.078125 200.390625 351.054688 Z M 200.390625 351.054688 " fill-opacity="1" fill-rule="nonzero"/><path fill="#ce8144" d="M 218.84375 330.207031 C 217.851562 329.710938 217.859375 328.003906 217.871094 326.09375 C 217.878906 324.226562 217.910156 322.335938 218.996094 321.773438 C 219.128906 321.707031 219.339844 321.597656 219.589844 321.644531 C 220.691406 321.84375 220.996094 324.707031 221.011719 326.167969 C 221.023438 327.167969 221.050781 329.835938 219.816406 330.28125 C 219.347656 330.453125 218.894531 330.234375 218.84375 330.207031 Z M 218.84375 330.207031 " fill-opacity="1" fill-rule="nonzero"/><path fill="#ce8144" d="M 161.390625 249.59375 C 160.457031 249 160.636719 247.300781 160.84375 245.402344 C 161.042969 243.546875 161.269531 241.667969 162.40625 241.222656 C 162.542969 241.167969 162.765625 241.082031 163.011719 241.152344 C 164.085938 241.460938 164.09375 244.34375 163.960938 245.796875 C 163.871094 246.792969 163.625 249.449219 162.351562 249.769531 C 161.867188 249.890625 161.4375 249.625 161.390625 249.59375 Z M 161.390625 249.59375 " fill-opacity="1" fill-rule="nonzero"/><path fill="#ce8144" d="M 163.046875 306.394531 C 162.109375 305.800781 162.292969 304.101562 162.5 302.203125 C 162.699219 300.34375 162.921875 298.46875 164.058594 298.023438 C 164.199219 297.96875 164.417969 297.878906 164.664062 297.953125 C 165.742188 298.261719 165.75 301.140625 165.617188 302.597656 C 165.523438 303.589844 165.28125 306.25 164.003906 306.570312 C 163.523438 306.691406 163.09375 306.425781 163.046875 306.394531 Z M 163.046875 306.394531 " fill-opacity="1" fill-rule="nonzero"/><path fill="#ce8144" d="M 132.566406 302.058594 C 131.632812 301.460938 131.816406 299.761719 132.019531 297.863281 C 132.21875 296.007812 132.445312 294.128906 133.582031 293.683594 C 133.71875 293.628906 133.941406 293.542969 134.1875 293.613281 C 135.261719 293.925781 135.273438 296.804688 135.136719 298.261719 C 135.046875 299.253906 134.804688 301.910156 133.527344 302.230469 C 133.042969 302.351562 132.617188 302.089844 132.566406 302.058594 Z M 132.566406 302.058594 " fill-opacity="1" fill-rule="nonzero"/><path fill="#022b3a" d="M 122.980469 315.980469 C 139.417969 309.703125 150.289062 329.519531 151.476562 343.285156 C 152.039062 348.207031 151.542969 353.300781 149.992188 358.011719 L 147.746094 357.316406 C 149.058594 352.863281 149.355469 348.1875 148.78125 343.589844 C 147.375 331.476562 138.535156 313.410156 123.761719 318.195312 C 123.761719 318.195312 122.980469 315.980469 122.980469 315.980469 Z M 122.980469 315.980469 " fill-opacity="1" fill-rule="nonzero"/><path fill="#022b3a" d="M 221.945312 355.683594 C 219.519531 338.800781 225.128906 316.542969 244.652344 313.59375 C 244.652344 313.589844 245.113281 315.898438 245.113281 315.898438 C 241.160156 316.859375 237.488281 318.679688 234.542969 321.347656 C 226.933594 328.300781 224.710938 339.253906 224.265625 349.210938 C 224.164062 351.277344 224.179688 353.382812 224.28125 355.417969 Z M 221.945312 355.683594 " fill-opacity="1" fill-rule="nonzero"/></svg>